CddbId:7411e717:[150, 14308, 34828, 49420, 67895, 84678, 104983, 119063, 134998, 148798, 151420, 168685, 184053, 209890, 225190, 239340, 257108, 273703, 284343, 297855, 324265, 332908, 338368]:343875:74:7411e717 23 150 14308 34828 49420 67895 84678 104983 119063 134998 148798 151420 168685 184053 209890 225190 239340 257108 273703 284343 297855 324265 332908 338368 4585: 23 0 0 0 0 0 0 0 0 0 0 0 0 0 0 0 0 0 0 0 0 0 0 0 4585
num_tracks: 23
offsets: [150, 14308, 34828, 49420, 67895, 84678, 104983, 119063, 134998, 148798, 151420, 168685, 184053, 209890, 225190, 239340, 257108, 273703, 284343, 297855, 324265, 332908, 338368]
extents: [0, 0, 0, 0, 0, 0, 0, 0, 0, 0, 0, 0, 0, 0, 0, 0, 0, 0, 0, 0, 0, 0, 0]
total_length: 4585
cddb: [1947330327, 23, 150, 14308, 34828, 49420, 67895, 84678, 104983, 119063, 134998, 148798, 151420, 168685, 184053, 209890, 225190, 239340, 257108, 273703, 284343, 297855, 324265, 332908, 338368, 4585]
musicbrainz: ('23 150 14308 34828 49420 67895 84678 104983 119063 134998 148798 151420 168685 184053 209890 225190 239340 257108 273703 284343 297855 324265 332908 338368 343888', '.2N1fF7TjH4hcvO2CSMJt4lNmCw-')

CD record:
Device type    : Removable CD-ROM
Version        : 0
Response Format: 2
Capabilities   : 
Vendor_info    : 'FREECOM_'
Identification : 'DVD+/-RW16H4    '
Revision       : 'FR00'
Device seems to be: Generic mmc2 DVD-R/DVD-RW.
Using generic SCSI-3/mmc   CD-R/CD-RW driver (mmc_cdr).
Driver flags   : MMC-3 SWABAUDIO BURNFREE 
Supported modes: TAO PACKET SAO SAO/R96R RAW/R96R
first: 1 last 23
track:   1 lba:         0 (        0) 00:02:00 adr: 1 control: 0 mode: -1
track:   2 lba:     14158 (    56632) 03:10:58 adr: 1 control: 0 mode: -1
track:   3 lba:     34678 (   138712) 07:44:28 adr: 1 control: 0 mode: -1
track:   4 lba:     49270 (   197080) 10:58:70 adr: 1 control: 0 mode: -1
track:   5 lba:     67745 (   270980) 15:05:20 adr: 1 control: 0 mode: -1
track:   6 lba:     84528 (   338112) 18:49:03 adr: 1 control: 0 mode: -1
track:   7 lba:    104833 (   419332) 23:19:58 adr: 1 control: 0 mode: -1
track:   8 lba:    118913 (   475652) 26:27:38 adr: 1 control: 0 mode: -1
track:   9 lba:    134848 (   539392) 29:59:73 adr: 1 control: 0 mode: -1
track:  10 lba:    148648 (   594592) 33:03:73 adr: 1 control: 0 mode: -1
track:  11 lba:    151270 (   605080) 33:38:70 adr: 1 control: 0 mode: -1
track:  12 lba:    168535 (   674140) 37:29:10 adr: 1 control: 0 mode: -1
track:  13 lba:    183903 (   735612) 40:54:03 adr: 1 control: 0 mode: -1
track:  14 lba:    209740 (   838960) 46:38:40 adr: 1 control: 0 mode: -1
track:  15 lba:    225040 (   900160) 50:02:40 adr: 1 control: 0 mode: -1
track:  16 lba:    239190 (   956760) 53:11:15 adr: 1 control: 0 mode: -1
track:  17 lba:    256958 (  1027832) 57:08:08 adr: 1 control: 0 mode: -1
track:  18 lba:    273553 (  1094212) 60:49:28 adr: 1 control: 0 mode: -1
track:  19 lba:    284193 (  1136772) 63:11:18 adr: 1 control: 0 mode: -1
track:  20 lba:    297705 (  1190820) 66:11:30 adr: 1 control: 0 mode: -1
track:  21 lba:    324115 (  1296460) 72:03:40 adr: 1 control: 0 mode: -1
track:  22 lba:    332758 (  1331032) 73:58:58 adr: 1 control: 0 mode: -1
track:  23 lba:    338218 (  1352872) 75:11:43 adr: 1 control: 0 mode: -1
track:lout lba:    343738 (  1374952) 76:25:13 adr: 1 control: 0 mode: -1
